<svg xmlns="http://www.w3.org/2000/svg" width="144" height="44" fill="none" viewBox="0 0 144 44" class="icon_icon__mP5gU icon_icon_XL__cXn7R"><g clip-path="url(#clip0_513_894)"><path stroke="#fff" d="M9.18 41.787v.002a18.19 18.19 0 01-.448-.009h0-.008c-.586-.011-1.255-.045-1.904-.17h0-.008a5.583 5.583 0 01-1.626-.545l-.003-.002c-.5-.254-.961-.599-1.352-1l-.002-.001a5.364 5.364 0 01-.993-1.391l-.002-.003a6.033 6.033 0 01-.538-1.664c-.123-.687-.156-1.392-.167-1.944h0v-.013a18.862 18.862 0 01-.01-.565v-.285l-.001-.088v-.032h0v0V8.464l.002-.088.003-.282c.003-.21.006-.453.006-.57.011-.563.044-1.266.167-1.939h0v-.002c.111-.624.286-1.16.538-1.674a5.55 5.55 0 01.986-1.38l.002-.002A5.204 5.204 0 015.184 1.52h0l.01-.004A5.436 5.436 0 016.817.972h.003C7.493.847 8.185.814 8.737.802l.95-.011h125.857l.967.011a.05.05 0 01.002 0c.542.012 1.233.045 1.894.17v0h.006a5.44 5.44 0 011.633.544h0l.007.003c.499.254.959.598 1.349 1.004h0l.009.01c.396.392.73.861 1.003 1.39a5.5 5.5 0 01.513 1.639l.001.008.002.01c.122.638.155 1.306.177 1.967v.002c.011.291.011.614.011.942V34.076c0 .349 0 .662-.011.988-.022.636-.055 1.31-.167 1.929l-.001.006a5.557 5.557 0 01-.536 1.666l-.002.003a5.345 5.345 0 01-.986 1.38l-.001.002a5.474 5.474 0 01-1.369 1.012h-.003c-.495.263-1.013.427-1.639.545h-.003c-.637.124-1.305.158-1.903.169h-.009c-.298.011-.615.011-.937.011H9.181z"></path><path fill="#fff" d="M49.25 27.515l-2.395-6.47-2.383 6.47h4.778zm-8.348 4.8l4.964-13.007h1.99l4.964 13.008h-1.834l-1.186-3.34h-5.856l-1.187 3.34h-1.855zm15.29-1.46v5.172H54.59V22.558h1.602v1.473c.339-.58.763-1.008 1.276-1.287.52-.286 1.134-.427 1.844-.427 1.187 0 2.15.472 2.89 1.416.747.938 1.119 2.176 1.119 3.715 0 1.532-.372 2.767-1.12 3.715-.74.937-1.703 1.406-2.889 1.406-.71 0-1.323-.138-1.844-.417-.513-.286-.937-.721-1.276-1.298zm5.46-3.407c0-1.179-.246-2.105-.737-2.777-.476-.674-1.138-1.012-1.99-1.012-.847 0-1.52.338-2.011 1.012-.483.672-.725 1.598-.725 2.777s.242 2.105.725 2.778c.49.666 1.16 1 2.012 1 .847 0 1.513-.334 1.989-1 .49-.673.736-1.599.736-2.778zm5.878 3.406v5.173h-1.614V22.558h1.614v1.473c.339-.58.759-1.008 1.265-1.287.52-.286 1.138-.427 1.855-.427 1.179 0 2.138.472 2.878 1.416.748.938 1.12 2.176 1.12 3.715 0 1.532-.372 2.767-1.12 3.715-.74.937-1.7 1.406-2.878 1.406-.718 0-1.335-.138-1.855-.417-.506-.286-.93-.721-1.265-1.298zm5.448-3.406c0-1.179-.245-2.105-.736-2.777-.476-.674-1.138-1.012-1.99-1.012-.848 0-1.52.338-2.011 1.012-.476.672-.714 1.598-.714 2.777s.238 2.105.713 2.778c.491.666 1.16 1 2.012 1 .848 0 1.514-.334 1.99-1 .49-.673.736-1.599.736-2.778zm13.205 3.012v-3.492h-2.868v-1.45h4.615v5.593a7.734 7.734 0 01-2.253 1.097 9.139 9.139 0 01-2.614.36c-2.038 0-3.63-.594-4.779-1.78-1.141-1.187-1.714-2.841-1.714-4.965 0-2.123.573-3.778 1.714-4.964 1.15-1.194 2.745-1.792 4.779-1.792.847 0 1.65.107 2.406.32.77.204 1.476.513 2.12.922v1.877a7.019 7.019 0 00-2.076-1.253 6.43 6.43 0 00-2.305-.416c-1.588 0-2.785.442-3.593 1.327-.791.893-1.186 2.22-1.186 3.976 0 1.755.394 3.078 1.186 3.963.808.886 2.005 1.328 3.593 1.328.62 0 1.178-.052 1.67-.152a4.387 4.387 0 001.305-.499zm10.865-3.056h-1.591c-1.298 0-2.194.148-2.693.45-.498.293-.747.799-.747 1.517 0 .572.186 1.026.561 1.36.372.332.882.495 1.529.495.892 0 1.606-.316 2.142-.944.535-.629.803-1.47.803-2.518v-.36h-.004zm1.603-.659v5.57h-1.603v-1.483c-.364.595-.822 1.034-1.361 1.32-.55.28-1.22.417-2.012.417-.996 0-1.792-.28-2.383-.837-.588-.565-.878-1.32-.878-2.265 0-1.09.365-1.918 1.097-2.484.74-.557 1.837-.836 3.295-.836h2.242v-.153c0-.74-.242-1.312-.725-1.714-.483-.402-1.164-.602-2.042-.602-.557 0-1.097.067-1.625.197a6.382 6.382 0 00-1.528.602v-1.484a10.433 10.433 0 011.714-.505 7.547 7.547 0 011.603-.175c1.413 0 2.47.364 3.165 1.097.695.74 1.04 1.848 1.04 3.335zm3.305 5.57V18.763h1.603v13.554h-1.603zm4.957 0V18.763h1.603v13.554h-1.603zm13.257-5.283v.792h-7.37c.067 1.097.394 1.94.989 2.525.599.572 1.432.855 2.495.855.614 0 1.209-.074 1.781-.22a7.858 7.858 0 001.726-.68v1.517c-.573.242-1.161.428-1.77.562a9.136 9.136 0 01-1.834.186c-1.554 0-2.785-.454-3.703-1.361-.908-.9-1.361-2.124-1.361-3.67 0-1.603.431-2.871 1.297-3.8.863-.945 2.031-1.418 3.492-1.418 1.313 0 2.347.424 3.109 1.276.766.84 1.149 1.985 1.149 3.436zm-7.326-.461h5.723c-.015-.878-.264-1.58-.747-2.109-.476-.52-1.108-.78-1.9-.78-.893 0-1.611.252-2.153.758-.536.506-.841 1.216-.923 2.13zm15.544-4.165l.011 1.647a2.244 2.244 0 00-.595-.23 2.921 2.921 0 00-.692-.078c-.907 0-1.606.297-2.097.888-.483.588-.725 1.432-.725 2.536v5.143h-1.603v-9.754h1.603v1.518c.338-.596.777-1.034 1.32-1.32.543-.294 1.197-.44 1.967-.44.112 0 .234.012.372.034.13.008.279.026.439.056zm10.04.152l-4.284 10.658c-.454 1.164-.896 1.926-1.327 2.283-.432.353-1.008.528-1.726.528h-1.286v-1.339h.944c.439 0 .785-.108 1.034-.32.242-.204.509-.699.803-1.483l.298-.725-3.957-9.602h1.703l3.053 7.623 3.042-7.623h1.703zM40.802 14.737V8.025h4.239v.759H41.7v1.99H44.9v.769h-3.198v2.428h3.428v.77h-4.328v-.004zm7.582-3.58l-2.086-3.132h.978l1.67 2.495 1.669-2.495h.978l-2.153 3.22 2.294 3.492h-.978l-1.878-2.856-1.91 2.856h-.979l2.395-3.58zm6.59-2.384h-1.142v2.517h1.141c.424 0 .755-.108.99-.32.226-.22.341-.535.341-.944 0-.394-.115-.703-.342-.922-.234-.22-.565-.331-.989-.331zm-2.042 5.964V8.025h2.041c.755 0 1.324.168 1.714.506.38.346.573.84.573 1.495 0 .665-.19 1.167-.573 1.506-.386.338-.959.505-1.714.505h-1.142v2.704h-.9v-.004zm5.548 0V8.025h.91v5.942h3.273v.77H58.48zm7.533-6.094c-.658 0-1.186.245-1.58.736-.38.49-.573 1.16-.573 2.011 0 .84.19 1.514.573 2.012.394.491.922.737 1.58.737.659 0 1.18-.246 1.558-.737.387-.498.584-1.167.584-2.011 0-.848-.193-1.521-.584-2.012-.379-.495-.9-.736-1.558-.736zm0-.737c.938 0 1.689.316 2.254.945.565.628.844 1.476.844 2.536 0 1.063-.283 1.907-.844 2.536-.565.628-1.316.944-2.254.944-.944 0-1.703-.316-2.275-.944-.566-.629-.844-1.476-.844-2.536 0-1.064.282-1.908.844-2.536.572-.632 1.33-.945 2.275-.945zm7.701 3.678c.198.067.387.208.573.428.182.211.368.509.562.888l.922 1.833h-.978l-.855-1.725c-.227-.446-.443-.744-.647-.889-.212-.145-.499-.219-.856-.219h-.989v2.833h-.91V8.025h2.052c.77 0 1.342.16 1.725.484.372.316.562.8.562 1.45 0 .424-.1.777-.298 1.056a1.526 1.526 0 01-.862.569zm-1.13-2.811h-1.142v2.383h1.142c.439 0 .77-.104.99-.308.226-.205.341-.502.341-.89 0-.393-.115-.69-.342-.888-.22-.197-.55-.297-.989-.297zm4.35 5.964V8.025h4.24v.759h-3.328v1.99h3.198v.769h-3.198v2.428h3.417v.77h-4.328v-.004zm8.743 0V8.025h.911v6.712h-.911zm1.792-5.953v-.759h5.679v.759h-2.384v5.953h-.911V8.784h-2.384zm12.205-.141c-.659 0-1.183.245-1.57.736-.386.49-.583 1.16-.583 2.011 0 .84.193 1.514.583 2.012.387.491.911.737 1.57.737.658 0 1.182-.246 1.569-.737.379-.498.572-1.167.572-2.011 0-.848-.189-1.521-.572-2.012-.387-.495-.911-.736-1.57-.736zm0-.737c.944 0 1.699.316 2.264.945.565.628.844 1.476.844 2.536 0 1.063-.282 1.907-.844 2.536-.561.628-1.32.944-2.264.944-.945 0-1.7-.316-2.265-.944-.565-.629-.844-1.476-.844-2.536 0-1.064.282-1.908.844-2.536.565-.632 1.32-.945 2.265-.945zm4.525 6.831V8.025h1.22l2.978 5.615V8.025h.889v6.712h-1.231l-2.978-5.615v5.615h-.878zM29.311 8.048H17.36c-5.637 0-7.701 2.053-7.701 7.69v11.951c0 5.638 2.064 7.701 7.701 7.701h11.951c5.627 0 7.69-2.063 7.69-7.7V15.737c0-5.637-2.052-7.69-7.69-7.69z"></path><path fill="#601E77" fill-rule="evenodd" d="M21.328 24.547l-.331.736h-.736l1.569-3.57h.636l1.569 3.57h-.759l-.32-.736h-1.628zm.26-.647h1.097l-.55-1.275-.547 1.275zm11.646-2.186h.726v3.57h-.726v-3.57zm-2.844 2.923h1.99v.646h-2.704v-3.57H32.3v.659H30.39v.725h1.32v.658h-1.32v.882zm-2.057-2.923h.759l-1.242 3.58h-.614l-.814-2.35-.814 2.35h-.595l-1.253-3.58h.78l.793 2.461.803-2.461h.595l.814 2.461.788-2.461zm-9.17 0h.726v2.023c0 1.022-.562 1.613-1.551 1.613-.967 0-1.528-.583-1.528-1.591v-2.042h.725v2.023c0 .603.286.923.814.923s.814-.32.814-.9v-2.05zm-4.086 0h.725v3.58h-.725v-1.46H13.44v1.46h-.725v-3.58h.725v1.439h1.636v-1.44zm8.259-4.548a4.547 4.547 0 01-4.548-4.548h.636a3.912 3.912 0 007.824 0h.636a4.557 4.557 0 01-4.548 4.548z" clip-rule="evenodd"></path></g><defs><clipPath id="clip0_513_894"><path fill="#fff" d="M0 0H143V43H0z" transform="translate(.618 .291)"></path></clipPath></defs></svg>