<svg xmlns="http://www.w3.org/2000/svg" width="141" height="43" fill="none" viewBox="0 0 141 43" class="icon_icon__mP5gU icon_icon_XL__cXn7R"><path fill="#fff" fill-opacity="0.02" d="M135.034 42.173H5.404c-2.904 0-5.185-2.312-5.185-5.254V5.393C.219 2.451 2.5.14 5.404.14h129.63c2.903 0 5.185 2.312 5.185 5.254V36.92c0 2.942-2.282 5.254-5.185 5.254z"></path><path fill="#fff" d="M135.034.98c2.385 0 4.355 1.996 4.355 4.413V36.92c0 2.417-1.97 4.413-4.355 4.413H5.404c-2.385 0-4.356-1.996-4.356-4.413V5.393C1.048 2.976 3.018.98 5.404.98h129.63zm0-.84H5.404C2.5.14.219 2.555.219 5.392V36.92c0 2.942 2.281 5.254 5.185 5.254h129.63c2.903 0 5.185-2.312 5.185-5.254V5.393c0-2.837-2.282-5.254-5.185-5.254z"></path><path fill="#fff" d="M34.416 20.338a5.46 5.46 0 01.695-2.597 5.374 5.374 0 011.845-1.936 5.483 5.483 0 00-1.876-1.693 5.403 5.403 0 00-2.425-.663c-1.81-.193-3.564 1.097-4.486 1.097-.94 0-2.36-1.078-3.888-1.046a5.672 5.672 0 00-2.797.845 5.77 5.77 0 00-2.023 2.133c-2.084 3.656-.53 9.03 1.467 11.985.999 1.447 2.166 3.064 3.693 3.006 1.495-.063 2.053-.966 3.857-.966 1.788 0 2.311.966 3.87.93 1.604-.026 2.614-1.454 3.578-2.915a12.034 12.034 0 001.636-3.376 5.17 5.17 0 01-2.286-1.922 5.272 5.272 0 01-.86-2.882zM31.473 11.504a5.367 5.367 0 001.2-3.811 5.32 5.32 0 00-3.455 1.812 5.077 5.077 0 00-.977 1.71 5.123 5.123 0 00-.256 1.96c.668.007 1.33-.14 1.934-.429a4.426 4.426 0 001.554-1.242zM52.349 27.95h-4.905l-1.178 3.524h-2.078l4.646-13.038h2.159l4.645 13.038h-2.113L52.35 27.95zm-4.397-1.626h3.888l-1.917-5.72h-.054l-1.917 5.72zM65.672 26.722c0 2.954-1.56 4.852-3.915 4.852a3.146 3.146 0 01-1.712-.402 3.202 3.202 0 01-1.24-1.261h-.045v4.708h-1.925V21.968h1.863v1.581h.036a3.35 3.35 0 011.264-1.258 3.293 3.293 0 011.723-.422c2.381 0 3.95 1.907 3.95 4.853zm-1.98 0c0-1.925-.981-3.19-2.479-3.19-1.471 0-2.46 1.292-2.46 3.19 0 1.915.989 3.198 2.46 3.198 1.498 0 2.48-1.256 2.48-3.198zM75.998 26.722c0 2.954-1.561 4.852-3.916 4.852a3.146 3.146 0 01-1.712-.402 3.202 3.202 0 01-1.24-1.261h-.044v4.708H67.16V21.968h1.864v1.581h.035a3.35 3.35 0 011.265-1.258 3.293 3.293 0 011.722-.422c2.381 0 3.951 1.907 3.951 4.853zm-1.98 0c0-1.925-.982-3.19-2.48-3.19-1.47 0-2.46 1.292-2.46 3.19 0 1.915.99 3.198 2.46 3.198 1.498 0 2.48-1.256 2.48-3.198zM82.821 27.842c.143 1.293 1.382 2.142 3.076 2.142 1.623 0 2.791-.85 2.791-2.015 0-1.012-.704-1.618-2.372-2.034l-1.667-.407c-2.363-.578-3.46-1.698-3.46-3.515 0-2.25 1.935-3.795 4.681-3.795 2.72 0 4.584 1.546 4.647 3.795h-1.944c-.116-1.301-1.178-2.086-2.73-2.086-1.55 0-2.612.794-2.612 1.95 0 .923.678 1.465 2.337 1.88l1.417.353c2.64.633 3.736 1.707 3.736 3.615 0 2.439-1.916 3.967-4.966 3.967-2.854 0-4.78-1.492-4.905-3.85h1.971zM94.879 19.72v2.249h1.784v1.545h-1.784v5.241c0 .814.357 1.194 1.141 1.194.212-.004.424-.02.634-.046v1.536c-.353.067-.711.097-1.07.09-1.9 0-2.64-.722-2.64-2.566v-5.449H91.58V21.97h1.364v-2.25h1.935zM97.695 26.723c0-2.991 1.739-4.87 4.449-4.87 2.721 0 4.451 1.879 4.451 4.87 0 2.999-1.721 4.87-4.451 4.87-2.728 0-4.449-1.871-4.449-4.87zm6.938 0c0-2.052-.928-3.263-2.489-3.263-1.56 0-2.488 1.22-2.488 3.263 0 2.06.928 3.261 2.488 3.261 1.561 0 2.489-1.201 2.489-3.261zM108.183 21.968h1.836v1.618h.045c.124-.505.416-.952.827-1.265a2.218 2.218 0 011.429-.453c.222 0 .444.024.66.073v1.825a2.657 2.657 0 00-.865-.118 1.919 1.919 0 00-1.5.626 1.96 1.96 0 00-.422.725 2.01 2.01 0 00-.085.837v5.638h-1.925v-9.506zM121.859 28.683c-.259 1.726-1.918 2.91-4.04 2.91-2.729 0-4.423-1.853-4.423-4.825 0-2.982 1.703-4.916 4.342-4.916 2.596 0 4.228 1.807 4.228 4.69v.668h-6.626v.118a2.503 2.503 0 00.662 1.923 2.416 2.416 0 001.862.77c.455.043.911-.064 1.302-.305.39-.241.693-.603.864-1.033h1.829zm-6.51-2.837h4.69a2.31 2.31 0 00-.63-1.716 2.252 2.252 0 00-1.671-.697 2.347 2.347 0 00-1.691.702 2.412 2.412 0 00-.698 1.71zM47.711 8.621c.404-.029.81.033 1.187.181.377.149.717.38.995.678.278.298.488.655.614 1.044.126.39.165.804.114 1.21 0 2.002-1.068 3.152-2.91 3.152h-2.233V8.622h2.233zm-1.273 5.38h1.166a1.92 1.92 0 001.549-.635 1.976 1.976 0 00.49-1.619 2.002 2.002 0 00-.498-1.607 1.95 1.95 0 00-1.54-.633h-1.167V14zM51.705 12.521a2.27 2.27 0 01.565-1.72 2.212 2.212 0 011.636-.733 2.186 2.186 0 011.635.733 2.248 2.248 0 01.565 1.72 2.268 2.268 0 01-.563 1.723 2.21 2.21 0 01-1.637.735 2.185 2.185 0 01-1.638-.735 2.248 2.248 0 01-.563-1.723zm3.454 0c0-1.025-.454-1.624-1.252-1.624-.8 0-1.25.6-1.25 1.624 0 1.033.45 1.628 1.25 1.628.798 0 1.252-.599 1.252-1.628zM61.956 14.886h-.955l-.965-3.482h-.072l-.96 3.482h-.947l-1.286-4.728h.934l.836 3.608h.069l.959-3.608h.883l.96 3.608h.072l.832-3.608h.921l-1.28 4.728zM64.319 10.158h.886v.751h.07a1.41 1.41 0 01.562-.647c.25-.15.54-.22.83-.195a1.5 1.5 0 011.224.486 1.544 1.544 0 01.39 1.272v3.061h-.92V12.06c0-.76-.326-1.138-1.007-1.138a1.06 1.06 0 00-.829.34 1.087 1.087 0 00-.285.858v2.766h-.921v-4.728zM69.749 8.313h.92v6.573h-.92V8.313zM71.95 12.52a2.27 2.27 0 01.564-1.72 2.211 2.211 0 011.636-.734 2.188 2.188 0 011.636.733 2.248 2.248 0 01.565 1.72 2.268 2.268 0 01-.563 1.723 2.211 2.211 0 01-1.638.735 2.186 2.186 0 01-1.637-.735 2.248 2.248 0 01-.563-1.723zm3.453 0c0-1.026-.454-1.625-1.252-1.625-.8 0-1.25.6-1.25 1.624 0 1.033.45 1.628 1.25 1.628.798 0 1.252-.599 1.252-1.628zM77.32 13.55c0-.851.626-1.342 1.736-1.411l1.264-.074v-.408c0-.5-.326-.782-.955-.782-.514 0-.87.192-.973.526h-.891c.094-.812.848-1.333 1.906-1.333 1.17 0 1.83.59 1.83 1.589v3.23h-.887v-.664h-.073a1.578 1.578 0 01-.601.563c-.247.13-.523.192-.8.18a1.392 1.392 0 01-1.088-.359 1.43 1.43 0 01-.467-1.057zm3-.404v-.395l-1.14.074c-.642.043-.934.265-.934.682 0 .425.365.673.866.673a1.087 1.087 0 00.82-.258 1.111 1.111 0 00.388-.776zM82.447 12.52c0-1.494.758-2.44 1.937-2.44.291-.014.58.057.834.204s.46.364.597.625h.069V8.312h.92v6.574h-.882v-.747h-.073a1.63 1.63 0 01-.619.62c-.258.145-.55.216-.846.205-1.187 0-1.937-.946-1.937-2.444zm.951 0c0 1.003.467 1.607 1.247 1.607.776 0 1.256-.613 1.256-1.603 0-.985-.485-1.606-1.256-1.606-.775 0-1.247.608-1.247 1.602zM90.614 12.521a2.27 2.27 0 01.565-1.72 2.212 2.212 0 011.635-.733 2.186 2.186 0 011.636.733 2.248 2.248 0 01.565 1.72 2.27 2.27 0 01-.563 1.723 2.21 2.21 0 01-1.638.735 2.185 2.185 0 01-1.637-.735 2.249 2.249 0 01-.563-1.723zm3.454 0c0-1.025-.455-1.624-1.252-1.624-.8 0-1.25.6-1.25 1.624 0 1.033.45 1.628 1.25 1.628.797 0 1.252-.599 1.252-1.628zM96.25 10.158h.887v.751h.069a1.41 1.41 0 01.563-.647c.25-.15.54-.22.83-.195a1.5 1.5 0 011.224.486 1.556 1.556 0 01.39 1.273v3.06h-.92V12.06c0-.76-.327-1.138-1.008-1.138a1.06 1.06 0 00-.828.34 1.086 1.086 0 00-.286.858v2.766h-.92v-4.728zM105.416 8.981v1.199h1.011v.786h-1.011v2.43c0 .496.202.713.66.713.118 0 .235-.008.351-.022v.778c-.165.03-.333.046-.501.047-1.024 0-1.431-.365-1.431-1.276v-2.67h-.741v-.786h.741V8.98h.921zM107.685 8.313h.913v2.605h.073c.122-.272.324-.5.579-.651a1.42 1.42 0 01.843-.196 1.523 1.523 0 011.213.498c.153.169.268.37.337.588.068.218.087.45.057.677v3.052h-.921v-2.822c0-.755-.348-1.138-.998-1.138a1.08 1.08 0 00-.863.323 1.107 1.107 0 00-.312.876v2.761h-.921V8.313zM117.07 13.609a1.916 1.916 0 01-.766 1.056c-.369.25-.814.36-1.256.312a2.095 2.095 0 01-1.635-.715 2.16 2.16 0 01-.52-1.726 2.201 2.201 0 01.519-1.732 2.15 2.15 0 011.632-.738c1.298 0 2.082.899 2.082 2.383v.326h-3.295v.052a1.256 1.256 0 00.742 1.254c.158.068.329.103.5.1.221.028.444-.012.641-.115.198-.102.361-.261.469-.457h.887zm-3.239-1.524h2.356a1.144 1.144 0 00-.69-1.138 1.112 1.112 0 00-.458-.087 1.18 1.18 0 00-.859.354 1.207 1.207 0 00-.349.871z"></path></svg>