<svg xmlns="http://www.w3.org/2000/svg" width="143" height="43" fill="none" viewBox="0 0 143 43" class="icon_icon__mP5gU icon_icon_XL__cXn7R"><path fill="#fff" fill-opacity="0.02" d="M137.509 42.325H6.154c-2.943 0-5.255-2.312-5.255-5.254V5.545C.9 2.603 3.211.291 6.154.291h131.355c2.943 0 5.254 2.312 5.254 5.254v31.526c0 2.942-2.311 5.254-5.254 5.254z"></path><path fill="#fff" d="M137.509 1.132c2.417 0 4.414 1.996 4.414 4.413v31.526c0 2.416-1.997 4.413-4.414 4.413H6.154c-2.417 0-4.414-1.997-4.414-4.413V5.545c0-2.417 1.997-4.413 4.414-4.413h131.355zm0-.841H6.154C3.21.291.899 2.708.899 5.545v31.526c0 2.942 2.312 5.254 5.255 5.254h131.355c2.943 0 5.254-2.312 5.254-5.254V5.545c0-2.837-2.311-5.254-5.254-5.254z"></path><path fill="#fff" stroke="#fff" stroke-miterlimit="10" stroke-width="0.21" d="M50.71 11.01c0 .84-.21 1.576-.736 2.101-.63.63-1.366.946-2.312.946-.946 0-1.681-.316-2.312-.946-.63-.63-.946-1.366-.946-2.312 0-.946.315-1.681.946-2.312.63-.63 1.366-.946 2.312-.946.42 0 .84.106 1.26.316.421.21.736.42.947.735l-.526.526c-.42-.526-.946-.736-1.681-.736-.63 0-1.261.21-1.681.736-.526.42-.736 1.05-.736 1.786s.21 1.366.736 1.787c.525.42 1.05.735 1.68.735.736 0 1.262-.21 1.787-.735a1.74 1.74 0 00.526-1.261h-2.312v-.841h3.047v.42zm4.833-2.628h-2.837v1.997h2.627v.735h-2.627v1.997h2.837v.84h-3.678V7.648h3.678v.735zm3.468 5.57h-.84v-5.57h-1.787v-.735h4.413v.735h-1.786v5.57zm4.834 0V7.647h.84v6.305h-.84zm4.413 0h-.84v-5.57H65.63v-.735h4.309v.735h-1.787v5.57h.105zm9.984-.841c-.631.63-1.367.946-2.312.946-.946 0-1.682-.316-2.312-.946-.63-.63-.946-1.366-.946-2.312 0-.946.315-1.681.946-2.312.63-.63 1.366-.946 2.312-.946.945 0 1.681.316 2.311.946.631.63.946 1.366.946 2.312 0 .946-.315 1.681-.945 2.312zm-3.994-.525c.42.42 1.051.735 1.682.735.63 0 1.26-.21 1.681-.735.42-.42.736-1.051.736-1.787s-.21-1.366-.736-1.786c-.42-.42-1.05-.736-1.681-.736-.63 0-1.261.21-1.682.736-.42.42-.735 1.05-.735 1.786s.21 1.366.735 1.787zm6.095 1.366V7.647h.946l3.047 4.939v-4.94h.841v6.306h-.84l-3.258-5.15v5.15h-.736z"></path><path fill="#fff" d="M72.462 23.2c-2.522 0-4.519 1.89-4.519 4.518a4.485 4.485 0 004.519 4.518c2.522 0 4.519-1.891 4.519-4.518 0-2.732-1.997-4.519-4.52-4.519zm0 7.145c-1.366 0-2.522-1.156-2.522-2.732 0-1.576 1.156-2.732 2.522-2.732 1.366 0 2.522 1.05 2.522 2.732 0 1.576-1.156 2.732-2.522 2.732zm-9.773-7.146c-2.522 0-4.519 1.892-4.519 4.519a4.485 4.485 0 004.52 4.518c2.521 0 4.518-1.891 4.518-4.518 0-2.732-1.997-4.519-4.519-4.519zm0 7.146c-1.366 0-2.522-1.156-2.522-2.732 0-1.576 1.156-2.732 2.522-2.732 1.366 0 2.522 1.05 2.522 2.732 0 1.576-1.156 2.732-2.522 2.732zm-11.664-5.78v1.892h4.518c-.105 1.05-.525 1.891-1.05 2.417-.631.63-1.682 1.366-3.468 1.366-2.838 0-4.94-2.207-4.94-5.044 0-2.838 2.207-5.044 4.94-5.044 1.47 0 2.627.63 3.468 1.366l1.366-1.366c-1.156-1.051-2.628-1.892-4.73-1.892-3.782 0-7.04 3.153-7.04 6.936s3.258 6.935 7.04 6.935c2.102 0 3.574-.63 4.835-1.996 1.26-1.261 1.681-3.048 1.681-4.414 0-.42 0-.84-.105-1.156h-6.515zm47.708 1.471c-.42-1.05-1.471-2.837-3.783-2.837s-4.203 1.787-4.203 4.519c0 2.522 1.891 4.518 4.413 4.518 1.997 0 3.258-1.26 3.678-1.996l-1.471-1.051c-.526.736-1.156 1.261-2.207 1.261-1.05 0-1.681-.42-2.207-1.366l5.99-2.522-.21-.526zm-6.095 1.472c0-1.682 1.366-2.627 2.312-2.627.736 0 1.471.42 1.681.945l-3.993 1.682zM87.7 31.816h1.997V18.681h-1.997v13.135zm-3.152-7.671c-.526-.525-1.367-1.05-2.417-1.05-2.207 0-4.309 1.996-4.309 4.518s1.997 4.413 4.309 4.413c1.05 0 1.891-.525 2.312-1.05h.105v.63c0 1.681-.946 2.627-2.417 2.627-1.156 0-1.997-.84-2.207-1.576l-1.681.735c.525 1.156 1.786 2.627 3.993 2.627 2.312 0 4.203-1.366 4.203-4.623v-7.987h-1.891v.736zm-2.312 6.2c-1.366 0-2.522-1.156-2.522-2.732 0-1.576 1.156-2.732 2.522-2.732 1.366 0 2.417 1.155 2.417 2.732 0 1.576-1.051 2.732-2.417 2.732zm25.64-11.664h-4.728v13.135h1.996v-4.939h2.732c2.207 0 4.309-1.576 4.309-4.098s-2.102-4.098-4.309-4.098zm.105 6.305h-2.837v-4.519h2.837c1.472 0 2.312 1.261 2.312 2.207-.105 1.156-.945 2.312-2.312 2.312zm12.085-1.892c-1.471 0-2.942.63-3.468 1.997l1.787.735c.42-.735 1.051-.945 1.786-.945 1.051 0 1.997.63 2.102 1.68v.106c-.315-.21-1.156-.525-1.997-.525-1.891 0-3.783 1.05-3.783 2.942 0 1.786 1.577 2.942 3.258 2.942 1.366 0 1.997-.63 2.522-1.26h.105v1.05h1.892v-5.044c-.211-2.312-1.997-3.678-4.204-3.678zm-.21 7.251c-.63 0-1.576-.315-1.576-1.156 0-1.05 1.156-1.366 2.101-1.366.841 0 1.261.21 1.787.42-.21 1.261-1.261 2.102-2.312 2.102zm11.034-6.936l-2.207 5.675h-.105l-2.312-5.675h-2.102l3.468 7.987-1.996 4.413h1.996l5.36-12.4h-2.102zm-17.654 8.407h1.996V18.681h-1.996v13.135z"></path><path fill="url(#paint0_linear_513_881)" d="M11.828 8.172c-.315.315-.42.84-.42 1.471v23.224c0 .63.21 1.156.525 1.47l.106.106 13.03-13.03v-.21L11.829 8.171z"></path><path fill="url(#paint1_linear_513_881)" d="M29.272 25.826l-4.308-4.308v-.316l4.308-4.308.105.105 5.15 2.943c1.47.84 1.47 2.206 0 3.047l-5.255 2.837z"></path><path fill="url(#paint2_linear_513_881)" d="M29.378 25.721l-4.414-4.413-13.136 13.135c.526.526 1.261.526 2.207.105l15.343-8.827z"></path><path fill="url(#paint3_linear_513_881)" d="M29.378 16.894L14.035 8.172c-.946-.526-1.681-.42-2.207.105l13.136 13.03 4.414-4.413z"></path><path fill="#020202" d="M29.272 25.616l-15.237 8.617c-.84.526-1.576.42-2.101 0l-.106.105.106.105c.525.42 1.26.526 2.101 0l15.237-8.827z" opacity="0.2"></path><path fill="#020202" d="M11.828 34.233c-.315-.315-.42-.84-.42-1.471v.105c0 .63.21 1.156.525 1.471v-.105h-.105zm22.699-11.56l-5.255 2.943.105.105 5.15-2.942c.735-.42 1.05-.946 1.05-1.471 0 .525-.42.945-1.05 1.366z" opacity="0.12"></path><path fill="#fff" d="M14.035 8.277l20.491 11.665c.631.42 1.051.84 1.051 1.366 0-.526-.315-1.051-1.05-1.472L14.034 8.172c-1.471-.84-2.627-.21-2.627 1.471v.105c0-1.576 1.156-2.312 2.627-1.47z" opacity="0.25"></path><defs><linearGradient id="paint0_linear_513_881" x1="23.808" x2="6.172" y1="9.443" y2="27.079" gradientUnits="userSpaceOnUse"><stop stop-color="#00A0FF"></stop><stop offset="0.007" stop-color="#00A1FF"></stop><stop offset="0.26" stop-color="#00BEFF"></stop><stop offset="0.512" stop-color="#00D2FF"></stop><stop offset="0.76" stop-color="#00DFFF"></stop><stop offset="1" stop-color="#00E3FF"></stop></linearGradient><linearGradient id="paint1_linear_513_881" x1="36.454" x2="11.027" y1="21.309" y2="21.309" gradientUnits="userSpaceOnUse"><stop stop-color="#FFE000"></stop><stop offset="0.409" stop-color="#FFBD00"></stop><stop offset="0.775" stop-color="orange"></stop><stop offset="1" stop-color="#FF9C00"></stop></linearGradient><linearGradient id="paint2_linear_513_881" x1="26.989" x2="3.074" y1="23.72" y2="47.636" gradientUnits="userSpaceOnUse"><stop stop-color="#FF3A44"></stop><stop offset="1" stop-color="#C31162"></stop></linearGradient><linearGradient id="paint3_linear_513_881" x1="8.568" x2="19.247" y1="0.475" y2="11.155" gradientUnits="userSpaceOnUse"><stop stop-color="#32A071"></stop><stop offset="0.069" stop-color="#2DA771"></stop><stop offset="0.476" stop-color="#15CF74"></stop><stop offset="0.801" stop-color="#06E775"></stop><stop offset="1" stop-color="#00F076"></stop></linearGradient></defs></svg>