<svg width="34" height="35" viewBox="0 0 34 35" class="icon_icon__mP5gU icon_icon_L__RPoCN" xmlns="http://www.w3.org/2000/svg"><path d="M5.66667 26H28.3333C29.1125 26 29.75 25.3625 29.75 24.5833C29.75 23.8042 29.1125 23.1667 28.3333 23.1667H5.66667C4.8875 23.1667 4.25 23.8042 4.25 24.5833C4.25 25.3625 4.8875 26 5.66667 26ZM5.66667 18.9167H28.3333C29.1125 18.9167 29.75 18.2792 29.75 17.5C29.75 16.7208 29.1125 16.0833 28.3333 16.0833H5.66667C4.8875 16.0833 4.25 16.7208 4.25 17.5C4.25 18.2792 4.8875 18.9167 5.66667 18.9167ZM4.25 10.4167C4.25 11.1958 4.8875 11.8333 5.66667 11.8333H28.3333C29.1125 11.8333 29.75 11.1958 29.75 10.4167C29.75 9.6375 29.1125 9 28.3333 9H5.66667C4.8875 9 4.25 9.6375 4.25 10.4167Z" fill="white"></path></svg>